<?xml version="1.0" encoding="UTF-8"?>
<svg version="1.1" xmlns="http://www.w3.org/2000/svg" width="512" height="512">
<path d="M0 0 C144.87 0 289.74 0 439 0 C439 92.73 439 185.46 439 281 C440.65 281.33 442.3 281.66 444 282 C472.13947881 295.7711307 495.03137068 320.06165063 505.54003906 349.72949219 C505.79495117 350.47875977 506.04986328 351.22802734 506.3125 352 C506.54291992 352.67450195 506.77333984 353.34900391 507.01074219 354.04394531 C510.96796641 366.42697736 512.51585756 378.47698532 512.375 391.4375 C512.36802094 392.45206268 512.36802094 392.45206268 512.36090088 393.48712158 C512.27943345 403.60788282 511.85220886 413.22254158 509 423 C508.80664062 423.66531738 508.61328125 424.33063477 508.4140625 425.01611328 C503.57176584 441.18325653 495.83420083 456.03477455 485 469 C484.16855469 469.99515625 483.33710938 470.9903125 482.48046875 472.015625 C463.5521292 493.94946606 435.76122098 508.58700164 407 512 C401.36664689 512.27237076 395.74436916 512.26235963 390.10565186 512.24050903 C388.420557 512.24138544 386.73546241 512.24314212 385.05036926 512.24569702 C380.43892118 512.25015978 375.82756686 512.2421879 371.21613067 512.23214546 C366.15973933 512.22338262 361.10335198 512.22633662 356.04695511 512.2277813 C346.24136754 512.22884261 336.43581674 512.21962745 326.63023861 512.20677864 C315.28294845 512.19235593 303.93568025 512.19078789 292.58837891 512.18920898 C262.64224679 512.1787163 232.69612284 512.15079398 202.75 512.125 C135.8425 512.08375 68.935 512.0425 0 512 C0 343.04 0 174.08 0 0 Z " fill="#D6E8FD" transform="translate(0,0)"/>
<path d="M0 0 C46.53 0 93.06 0 141 0 C141 17.49 141 34.98 141 53 C113.61 53 86.22 53 58 53 C58 186.98 58 320.96 58 459 C134.89 458.67 211.78 458.34 291 458 C287.04 451.07 287.04 451.07 283 444 C269.08059659 414.63005881 267.34054174 382.39702683 277.3515625 351.5625 C289.57606852 319.32804838 313.5342256 294.39513231 344.86328125 280.20703125 C356.36128172 275.25089417 367.57937323 273.24206268 380 272 C380 199.73 380 127.46 380 53 C352.61 53 325.22 53 297 53 C297 35.51 297 18.02 297 0 C343.86 0 390.72 0 439 0 C439 92.73 439 185.46 439 281 C440.65 281.33 442.3 281.66 444 282 C472.13947881 295.7711307 495.03137068 320.06165063 505.54003906 349.72949219 C505.79495117 350.47875977 506.04986328 351.22802734 506.3125 352 C506.54291992 352.67450195 506.77333984 353.34900391 507.01074219 354.04394531 C510.96796641 366.42697736 512.51585756 378.47698532 512.375 391.4375 C512.36802094 392.45206268 512.36802094 392.45206268 512.36090088 393.48712158 C512.27943345 403.60788282 511.85220886 413.22254158 509 423 C508.80664062 423.66531738 508.61328125 424.33063477 508.4140625 425.01611328 C503.57176584 441.18325653 495.83420083 456.03477455 485 469 C484.16855469 469.99515625 483.33710938 470.9903125 482.48046875 472.015625 C463.5521292 493.94946606 435.76122098 508.58700164 407 512 C401.36664689 512.27237076 395.74436916 512.26235963 390.10565186 512.24050903 C388.420557 512.24138544 386.73546241 512.24314212 385.05036926 512.24569702 C380.43892118 512.25015978 375.82756686 512.2421879 371.21613067 512.23214546 C366.15973933 512.22338262 361.10335198 512.22633662 356.04695511 512.2277813 C346.24136754 512.22884261 336.43581674 512.21962745 326.63023861 512.20677864 C315.28294845 512.19235593 303.93568025 512.19078789 292.58837891 512.18920898 C262.64224679 512.1787163 232.69612284 512.15079398 202.75 512.125 C135.8425 512.08375 68.935 512.0425 0 512 C0 343.04 0 174.08 0 0 Z " fill="#5EBEFA" transform="translate(0,0)"/>
<path d="M0 0 C27.06 0 54.12 0 82 0 C82 8.91 82 17.82 82 27 C91.24 27 100.48 27 110 27 C110 45.81 110 64.62 110 84 C126.5 84 143 84 160 84 C160 189.6 160 295.2 160 404 C107.2 404 54.4 404 0 404 C0 270.68 0 137.36 0 0 Z " fill="#ECF5FE" transform="translate(59,54)"/>
<path d="M0 0 C46.53 0 93.06 0 141 0 C141 17.49 141 34.98 141 53 C113.61 53 86.22 53 58 53 C58 186.98 58 320.96 58 459 C134.51487665 458.4853905 134.51487665 458.4853905 211.02856445 457.82885742 C225.83239746 457.7701416 225.83239746 457.7701416 232.764328 457.75923157 C237.60296729 457.74712606 242.43974976 457.69844504 247.27787781 457.6275177 C253.45485859 457.53816594 259.62915021 457.51164376 265.80671728 457.53006041 C268.07024684 457.52621135 270.33387288 457.50052794 272.59684622 457.4502033 C290.37945465 457.07320721 290.37945465 457.07320721 295.70259666 461.8175602 C298.60738291 464.94904677 300.78237801 468.35893199 303 472 C307.29127346 477.63551534 312.44227105 481.6530099 318 486 C318.85851562 486.68578125 319.71703125 487.3715625 320.6015625 488.078125 C336.84381289 500.54196669 357.69734328 508.69287992 378 511 C378 511.33 378 511.66 378 512 C253.26 512 128.52 512 0 512 C0 343.04 0 174.08 0 0 Z " fill="#4A527E" transform="translate(0,0)"/>
<path d="M0 0 C0 7.92 0 15.84 0 24 C9.9 24 19.8 24 30 24 C30 16.08 30 8.16 30 0 C36.38127319 0.70903035 41.11593343 1.41136261 46.875 3.6875 C47.910802 4.09005005 47.910802 4.09005005 48.9675293 4.50073242 C59.67587573 8.76189948 68.37375872 14.33515661 77 22 C77.71027344 22.62648438 78.42054688 23.25296875 79.15234375 23.8984375 C92.33852998 36.27517468 101.14981156 53.47088121 105 71 C105 71.99 105 72.98 105 74 C96.09 74 87.18 74 78 74 C78 83.9 78 93.8 78 104 C86.58 104 95.16 104 104 104 C103.30203585 110.28167731 102.64655196 115.0548667 100.4375 120.75 C100.17428955 121.43537842 99.9110791 122.12075684 99.63989258 122.8269043 C91.19771591 143.92378889 74.78317372 161.48539432 54.0234375 170.89599609 C46.07288866 174.24588276 38.56190002 176.28762 30 178 C30 169.42 30 160.84 30 152 C20.1 152 10.2 152 0 152 C0 160.25 0 168.5 0 177 C-22.65690724 174.16788659 -42.30049901 161.98083015 -56.33984375 144.00390625 C-64.55322897 132.83519786 -73 118.15285442 -73 104 C-63.76 104 -54.52 104 -45 104 C-45 94.1 -45 84.2 -45 74 C-54.24 74 -63.48 74 -73 74 C-73 54.93767135 -60.25163185 36.63848588 -47.515625 23.421875 C-35.55412185 11.8850406 -17.15209637 0 0 0 Z " fill="#D6E8FD" transform="translate(376,303)"/>
<path d="M0 0 C46.86 0 93.72 0 142 0 C142 92.4 142 184.8 142 280 C137.08184548 279.2974065 134.1557357 278.82024177 129.8125 277.125 C124.42424201 275.28641633 119.1065384 274.14428101 113.5 273.25 C112.39168823 273.05881592 112.39168823 273.05881592 111.26098633 272.86376953 C101.75057503 271.45766829 92.84201739 272 83 272 C83 199.73 83 127.46 83 53 C55.61 53 28.22 53 0 53 C0 35.51 0 18.02 0 0 Z " fill="#2E305F" transform="translate(297,0)"/>
<path d="M0 0 C51.48 0 102.96 0 156 0 C156 17.49 156 34.98 156 53 C183.39 53 210.78 53 239 53 C239 125.27 239 197.54 239 272 C238.67 272 238.34 272 238 272 C238 200.06 238 128.12 238 54 C210.94 54 183.88 54 156 54 C156 62.91 156 71.82 156 81 C146.76 81 137.52 81 128 81 C128 99.81 128 118.62 128 138 C95 138 62 138 28 138 C28 119.19 28 100.38 28 81 C18.76 81 9.52 81 0 81 C0 72.09 0 63.18 0 54 C-27.06 54 -54.12 54 -82 54 C-82 187.32 -82 320.64 -82 458 C-5.11 458 71.78 458 151 458 C151 458.33 151 458.66 151 459 C73.78 459 -3.44 459 -83 459 C-83 325.02 -83 191.04 -83 53 C-55.61 53 -28.22 53 0 53 C0 35.51 0 18.02 0 0 Z " fill="#BA82F4" transform="translate(141,0)"/>
<path d="M0 0 C0 18.15 0 36.3 0 55 C-4.95 55 -9.9 55 -15 55 C-15 47.08 -15 39.16 -15 31 C-38.73143845 36.4764858 -60.25371658 48.64647444 -73.8671875 69.45703125 C-80.89667745 80.94196786 -85.17657508 91.82401705 -88 105 C-78.76 105 -69.52 105 -60 105 C-60 114.9 -60 124.8 -60 135 C-69.24 135 -78.48 135 -88 135 C-80.51926056 163.0527729 -67.15214699 184.03101787 -41.6171875 198.98046875 C-32.90428124 203.63462938 -24.62684865 205.88884898 -15 208 C-15 199.75 -15 191.5 -15 183 C-10.05 183 -5.1 183 0 183 C0 201.81 0 220.62 0 240 C-32.76055073 240 -61.23764731 227.56678893 -84.48828125 204.53515625 C-85.31714844 203.69855469 -86.14601563 202.86195313 -87 202 C-87.77859375 201.21882812 -88.5571875 200.43765625 -89.359375 199.6328125 C-110.01231109 177.96747759 -120.38883798 146.74642189 -120.44116211 117.11352539 C-119.49825475 83.97865142 -104.84910687 53.4543352 -81.0546875 30.77734375 C-64.37847319 15.3753741 -43.36877353 4.77337321 -21 1 C-19.9996875 0.81050781 -18.999375 0.62101562 -17.96875 0.42578125 C-12.01166952 -0.21331498 -5.99126462 0 0 0 Z " fill="#74DFFB" transform="translate(391,272)"/>
<path d="M0 0 C0 7.92 0 15.84 0 24 C4.95 24 9.9 24 15 24 C15 32.58 15 41.16 15 50 C10.05 50 5.1 50 0 50 C-0.20499442 56.72335637 -0.31499834 63.43958364 -0.34179688 70.16601562 C-0.36369537 72.44732333 -0.41035169 74.72854597 -0.48339844 77.00878906 C-1.36274485 89.57439744 -1.36274485 89.57439744 2.42669678 101.14373779 C4.78135265 103.62927622 7.33080284 105.74929982 9.99554443 107.89190674 C13.53891601 110.92220781 15.40080556 113.01963741 16.14990234 117.71240234 C16.53669355 122.95571778 16.23209929 128.13882715 15.875 133.375 C15.80459874 135.18986019 15.74075136 137.00498695 15.68359375 138.8203125 C15.53101194 143.22025908 15.2906454 147.60710244 15 152 C10.05 152 5.1 152 0 152 C0 160.25 0 168.5 0 177 C-22.65690724 174.16788659 -42.30049901 161.98083015 -56.33984375 144.00390625 C-64.55322897 132.83519786 -73 118.15285442 -73 104 C-63.76 104 -54.52 104 -45 104 C-45 94.1 -45 84.2 -45 74 C-54.24 74 -63.48 74 -73 74 C-73 54.93767135 -60.25163185 36.63848588 -47.515625 23.421875 C-35.55412185 11.8850406 -17.15209637 0 0 0 Z " fill="#ECF5FE" transform="translate(376,303)"/>
<path d="M0 0 C25.74 0 51.48 0 78 0 C78.020625 8.188125 78.04125 16.37625 78.0625 24.8125 C78.071604 27.33366455 78.08070801 29.8548291 78.09008789 32.45239258 C78.09302119 34.55810494 78.09556634 36.66381789 78.09765625 38.76953125 C78.10277222 39.77576538 78.10788818 40.78199951 78.11315918 41.81872559 C78.11459591 54.57257585 77.47309299 67.22648926 77 80 C51.59 80 26.18 80 0 80 C0 53.6 0 27.2 0 0 Z " fill="#8F5FF8" transform="translate(219,0)"/>
<path d="M0 0 C27.72 0 55.44 0 84 0 C84 72.27 84 144.54 84 219 C83.67 219 83.34 219 83 219 C83 147.06 83 75.12 83 1 C55.94 1 28.88 1 1 1 C1 9.91 1 18.82 1 28 C-8.24 28 -17.48 28 -27 28 C-27 46.81 -27 65.62 -27 85 C-60 85 -93 85 -127 85 C-127 66.19 -127 47.38 -127 28 C-136.24 28 -145.48 28 -155 28 C-155 19.09 -155 10.18 -155 1 C-154.67 1 -154.34 1 -154 1 C-154 9.58 -154 18.16 -154 27 C-103.18 27 -52.36 27 0 27 C0 18.09 0 9.18 0 0 Z " fill="#B8C5E6" transform="translate(296,53)"/>
<path d="M0 0 C17.7771156 -0.52141452 17.7771156 -0.52141452 25.41210938 -0.63476562 C30.60358475 -0.71220762 35.79205333 -0.80333239 40.98120117 -0.98071289 C45.17015328 -1.12299162 49.35588059 -1.19989169 53.54706383 -1.23340416 C55.13778143 -1.25725012 56.72834088 -1.30382551 58.31766701 -1.37449074 C70.39451535 -1.88962142 70.39451535 -1.88962142 74.73382187 1.2574501 C78.41761733 4.7591833 81.18575339 8.79036352 84 13 C88.32179776 18.6183771 93.43488445 22.64723245 99 27 C99.85851562 27.68578125 100.71703125 28.3715625 101.6015625 29.078125 C117.84381289 41.54196669 138.69734328 49.69287992 159 52 C159 52.33 159 52.66 159 53 C106.53 53 54.06 53 0 53 C0 35.51 0 18.02 0 0 Z " fill="#2F3161" transform="translate(219,459)"/>
<path d="M0 0 C27.72 0 55.44 0 84 0 C84 72.27 84 144.54 84 219 C83.67 219 83.34 219 83 219 C83 147.06 83 75.12 83 1 C55.94 1 28.88 1 1 1 C1 9.91 1 18.82 1 28 C-8.24 28 -17.48 28 -27 28 C-27 46.48 -27 64.96 -27 84 C-43.5 84 -60 84 -77 84 C-77 74.43 -77 64.86 -77 55 C-70.4 55 -63.8 55 -57 55 C-57 45.76 -57 36.52 -57 27 C-38.19 27 -19.38 27 0 27 C0 18.09 0 9.18 0 0 Z " fill="#9DA8CC" transform="translate(296,53)"/>
<path d="M0 0 C25.41 0 50.82 0 77 0 C77 9.9 77 19.8 77 30 C51.59 30 26.18 30 0 30 C0 20.1 0 10.2 0 0 Z " fill="#C6D2EB" transform="translate(219,243)"/>
<path d="M0 0 C25.41 0 50.82 0 77 0 C77 9.9 77 19.8 77 30 C51.59 30 26.18 30 0 30 C0 20.1 0 10.2 0 0 Z " fill="#C6D2EB" transform="translate(219,183)"/>
<path d="M0 0 C25.41 0 50.82 0 77 0 C77 19.63960012 77 19.63960012 70.97659302 27.3526001 C65.39817345 32.31408033 59.25392862 31.72577238 52.24609375 31.3671875 C50.73447397 31.34103017 49.22273435 31.32112311 47.71095276 31.30715942 C43.75715518 31.25403679 39.81071682 31.11689331 35.85980225 30.96130371 C31.10630199 30.79194222 26.35032 30.7284585 21.5946579 30.6469574 C14.39134222 30.51178078 7.20412231 30.2435523 0 30 C0 20.1 0 10.2 0 0 Z " fill="#C6D2EB" transform="translate(219,303)"/>
<path d="M0 0 C9.9 0 19.8 0 30 0 C29.89816406 2.49691406 29.79632813 4.99382812 29.69140625 7.56640625 C28.30521088 27.63677965 28.30521088 27.63677965 36.43530273 44.96655273 C39.49603008 47.62260226 42.53690122 49.88713468 46 52 C41.76183463 57.06623768 37.32591037 61.80038069 32.625 66.4375 C31.66400391 67.39172852 31.66400391 67.39172852 30.68359375 68.36523438 C29.12469121 69.91250332 27.56348584 71.45736492 26 73 C15.61854414 68.07410513 4.41011604 60.02301127 0 49 C-3.47212212 33.28612215 -1.23349537 15.86100607 0 0 Z " fill="#9161F9" transform="translate(376,353)"/>
<path d="M0 0 C13.2 0 26.4 0 40 0 C40 9.24 40 18.48 40 28 C26.8 28 13.6 28 0 28 C0 18.76 0 9.52 0 0 Z " fill="#D6E6FD" transform="translate(199,80)"/>
<path d="M0 0 C4.929375 -0.020625 9.85875 -0.04125 14.9375 -0.0625 C17.2731604 -0.07615601 17.2731604 -0.07615601 19.65600586 -0.09008789 C21.47950562 -0.09383423 21.47950562 -0.09383423 23.33984375 -0.09765625 C24.59144287 -0.10289307 25.84304199 -0.10812988 27.13256836 -0.11352539 C30 0 30 0 31 1 C31.08783542 3.21855264 31.10694609 5.43988496 31.09765625 7.66015625 C31.09515869 8.87582275 31.09266113 10.09148926 31.09008789 11.34399414 C31.08098389 12.90110107 31.07187988 14.45820801 31.0625 16.0625 C31.041875 20.991875 31.02125 25.92125 31 31 C20.77 31 10.54 31 0 31 C0 20.77 0 10.54 0 0 Z " fill="#FC649A" transform="translate(132,182)"/>
<path d="M0 0 C10.23 0 20.46 0 31 0 C31 9.9 31 19.8 31 30 C20.77 30 10.54 30 0 30 C0 20.1 0 10.2 0 0 Z " fill="#78E0FC" transform="translate(132,243)"/>
<path d="M0 0 C9.9 0 19.8 0 30 0 C30 9.9 30 19.8 30 30 C20.1 30 10.2 30 0 30 C0 20.1 0 10.2 0 0 Z " fill="#3EF294" transform="translate(132,303)"/>
<path d="M0 0 C4.95 0 9.9 0 15 0 C15 20.79 15 41.58 15 63 C12.69 61.02 10.38 59.04 8 57 C7.20597778 56.36255859 6.41195557 55.72511719 5.59387207 55.06835938 C1.55108904 51.55155384 -0.48211434 49.0295671 -0.90820312 43.59375 C-0.90695095 41.56205962 -0.86258897 39.5300619 -0.78125 37.5 C-0.76993042 36.42371338 -0.75861084 35.34742676 -0.74694824 34.23852539 C-0.70240645 30.82382038 -0.60208001 27.41342074 -0.5 24 C-0.45984456 21.67584219 -0.42334743 19.3516181 -0.390625 17.02734375 C-0.3027424 11.34992088 -0.1648435 5.67568855 0 0 Z " fill="#BD7DFA" transform="translate(376,353)"/>
<path d="M0 0 C7.92 0 15.84 0 24 0 C24 9.9 24 19.8 24 30 C16.08 30 8.16 30 0 30 C0 20.1 0 10.2 0 0 Z " fill="#D7E9FE" transform="translate(195,303)"/>
<path d="M0 0 C7.92 0 15.84 0 24 0 C24 9.9 24 19.8 24 30 C16.08 30 8.16 30 0 30 C0 20.1 0 10.2 0 0 Z " fill="#D7E9FE" transform="translate(195,243)"/>
<path d="M0 0 C7.92 0 15.84 0 24 0 C24 9.9 24 19.8 24 30 C16.08 30 8.16 30 0 30 C0 20.1 0 10.2 0 0 Z " fill="#D7E9FE" transform="translate(195,183)"/>
<path d="M0 0 C6.6 0 13.2 0 20 0 C20 8.91 20 17.82 20 27 C13.4 27 6.8 27 0 27 C0 18.09 0 9.18 0 0 Z " fill="#ECF5FE" transform="translate(199,81)"/>
</svg>
